<svg xmlns="http://www.w3.org/2000/svg" viewBox="0 0 720 960">
  <defs>
    <linearGradient id="bg" x1="0" x2="1" y1="0" y2="1">
      <stop offset="0" stop-color="#cab2ff"/>
      <stop offset="1" stop-color="#4d3a80"/>
    </linearGradient>
    <linearGradient id="pants" x1="0" x2="0" y1="0" y2="1">
      <stop offset="0" stop-color="#3b3c5e"/>
      <stop offset="1" stop-color="#202235"/>
    </linearGradient>
    <filter id="shadow" x="-20%" y="-20%" width="140%" height="140%">
      <feDropShadow dx="0" dy="14" stdDeviation="12" flood-color="#10151f" flood-opacity=".45"/>
    </filter>
  </defs>
  <rect width="720" height="960" rx="56" fill="url(#bg)"/>
  <ellipse cx="360" cy="838" rx="178" ry="36" fill="#20182f" opacity=".34"/>
  <g filter="url(#shadow)">
    <path d="M253 442c4-72 48-118 112-118 68 0 111 49 114 118l15 214c4 58-38 108-95 112l-72 5c-58 4-108-38-112-96z" fill="#f4e8ff"/>
    <path d="M247 464c46 28 95 42 146 42 38 0 70-8 94-23l9 138c-34 25-79 38-134 38-53 0-94-12-122-35z" fill="#b78cff"/>
    <path d="M269 655h66l-8 154h-74z" fill="url(#pants)"/>
    <path d="M383 655h65l18 154h-74z" fill="url(#pants)"/>
    <path d="M227 795h102c12 0 23 9 25 21l3 17H210l2-18c2-12 4-20 15-20z" fill="#171a27"/>
    <path d="M389 795h104c12 0 23 9 25 21l3 17H373l2-18c2-12 4-20 14-20z" fill="#171a27"/>
    <path d="M228 483c-42 38-69 88-77 150-2 17 10 33 27 36 16 3 32-8 36-24 13-54 36-92 69-116z" fill="#f4c29b"/>
    <path d="M492 485c43 39 69 89 78 151 2 17-10 33-27 36-16 3-32-8-36-24-13-55-36-93-69-117z" fill="#f4c29b"/>
    <path d="M268 246c0-63 39-111 94-111 57 0 96 48 96 111v43c0 60-43 108-96 108-54 0-94-48-94-108z" fill="#f4c29b"/>
    <path d="M260 239c7-69 49-111 111-111 58 0 94 39 101 101-38-18-73-27-106-26-37 1-72 13-106 36z" fill="#30243a"/>
    <path d="M277 247c40-31 91-37 164-12l7 60c-29-16-58-22-88-18-30 4-58 16-83 36z" fill="#30243a"/>
    <circle cx="327" cy="281" r="8" fill="#171a27"/>
    <circle cx="397" cy="281" r="8" fill="#171a27"/>
    <path d="M333 336c22 18 45 18 68 0" fill="none" stroke="#8b4a3a" stroke-width="10" stroke-linecap="round"/>
    <path d="M258 163c31-31 78-52 122-50 45 2 78 28 94 70-37-11-74-16-111-13-36 3-71 13-105 31z" fill="#3a2a45"/>
    <path d="M196 442c50 8 89 35 118 81 20 31 8 72-25 89l-88 45c-34 17-73-8-72-46 1-70 23-126 67-169z" fill="#fff1a8"/>
    <path d="M210 475c35 11 60 32 75 62 8 16 2 36-14 45l-81 43c-13 7-29-2-30-17-3-51 14-95 50-133z" fill="#efe0ff"/>
    <path d="M150 429c-20 13-27 40-14 61 13 20 41 26 62 13 20-14 27-41 13-62-13-20-40-25-61-12z" fill="#fff7cf"/>
    <path d="M500 725c-48 18-91 20-130 7l-12-42c49 8 94 3 135-15z" fill="#fff1a8"/>
    <text x="360" y="600" text-anchor="middle" font-family="Arial, Helvetica, sans-serif" font-size="62" font-weight="900" fill="#10151f">Z</text>
    <text x="360" y="648" text-anchor="middle" font-family="Arial, Helvetica, sans-serif" font-size="30" font-weight="900" fill="#10151f">POWER NAP</text>
  </g>
</svg>
